<svg width="97" height="34" viewBox="0 0 97 34" fill="none" xmlns="http://www.w3.org/2000/svg">
<circle cx="89.5" cy="7.5" r="7.5" fill="#FD5C63"/>
<path d="M4.19922 23.9902V29H1.26953V14.7812H6.81641C7.88411 14.7812 8.82161 14.9766 9.62891 15.3672C10.4427 15.7578 11.0677 16.3145 11.5039 17.0371C11.9401 17.7533 12.1582 18.5703 12.1582 19.4883C12.1582 20.8815 11.6797 21.9818 10.7227 22.7891C9.77214 23.5898 8.45378 23.9902 6.76758 23.9902H4.19922ZM4.19922 21.6172H6.81641C7.59115 21.6172 8.18034 21.4349 8.58398 21.0703C8.99414 20.7057 9.19922 20.1849 9.19922 19.5078C9.19922 18.8112 8.99414 18.248 8.58398 17.8184C8.17383 17.3887 7.60742 17.1673 6.88477 17.1543H4.19922V21.6172ZM22.4688 26.0703H17.332L16.3555 29H13.2402L18.5332 14.7812H21.248L26.5703 29H23.4551L22.4688 26.0703ZM18.123 23.6973H21.6777L19.8906 18.375L18.123 23.6973ZM32.8281 26.6465H39.0488V29H29.8984V14.7812H32.8281V26.6465ZM50.9609 26.0703H45.8242L44.8477 29H41.7324L47.0254 14.7812H49.7402L55.0625 29H51.9473L50.9609 26.0703ZM46.6152 23.6973H50.1699L48.3828 18.375L46.6152 23.6973ZM67.9219 17.1543H63.5664V29H60.6367V17.1543H56.3398V14.7812H67.9219V17.1543ZM80.1562 22.8379H74.5312V26.6465H81.1328V29H71.6016V14.7812H81.1133V17.1543H74.5312V20.543H80.1562V22.8379Z" fill="black"/>
</svg>
